<?xml version="1.0" encoding="UTF-8"?>
<svg width="24px" height="24px" viewBox="0 0 24 24" version="1.1" xmlns="http://www.w3.org/2000/svg">
    <g stroke="none" stroke-width="1" fill="none" fill-rule="evenodd">
        <path d="M12,2 C17.5228475,2 22,6.4771525 22,12 C22,17.5228475 17.5228475,22 12,22 C6.4771525,22 2,17.5228475 2,12 C2,6.4771525 6.4771525,2 12,2 Z M12,4 C7.581722,4 4,7.581722 4,12 C4,16.418278 7.581722,20 12,20 C16.418278,20 20,16.418278 20,12 C20,7.581722 16.418278,4 12,4 Z M13,6 L13,11.5858L16.7071068,15.2929C17.0976311,15.6834 17.0976311,16.3166 16.7071068,16.7071C16.3165825,17.0976 15.6834175,17.0976 15.2928932,16.7071L11.2928932,12.7071C11.1053568,12.5196 11,12.2652 11,12L11,6C11,5.44772 11.4477153,5 12,5C12.5522847,5 13,5.44772 13,6 Z" fill="#000000"></path>
    </g>
</svg>
